<svg width="84" height="84" viewBox="0 0 84 84" fill="none" xmlns="http://www.w3.org/2000/svg">
<path d="M55.24 7H28.78C15.55 7 12.26 10.535 12.26 24.64V64.05C12.26 73.36 17.37 75.565 23.565 68.915L23.6 68.88C26.47 65.835 30.845 66.08 33.33 69.405L36.865 74.13C39.7 77.875 44.285 77.875 47.12 74.13L50.655 69.405C53.175 66.045 57.55 65.8 60.42 68.88C66.65 75.53 71.725 73.325 71.725 64.015V24.64C71.76 10.535 68.47 7 55.24 7ZM51.635 37.625H32.385C30.95 37.625 29.76 36.435 29.76 35C29.76 33.565 30.95 32.375 32.385 32.375H51.635C53.07 32.375 54.26 33.565 54.26 35C54.26 36.435 53.07 37.625 51.635 37.625Z" fill="#292D32"/>
</svg>
