<svg width="84" height="84" viewBox="0 0 84 84" fill="none" xmlns="http://www.w3.org/2000/svg">
<path d="M42 7C32.83 7 25.375 14.455 25.375 23.625C25.375 32.62 32.41 39.9 41.58 40.215C41.86 40.18 42.14 40.18 42.35 40.215C42.42 40.215 42.455 40.215 42.525 40.215C42.56 40.215 42.56 40.215 42.595 40.215C51.555 39.9 58.59 32.62 58.625 23.625C58.625 14.455 51.17 7 42 7Z" fill="#292D32"/>
<path d="M59.7801 49.525C50.0151 43.015 34.0901 43.015 24.2551 49.525C19.8101 52.5 17.3601 56.525 17.3601 60.83C17.3601 65.135 19.8101 69.125 24.2201 72.065C29.1201 75.355 35.5601 77 42.0001 77C48.4401 77 54.8801 75.355 59.7801 72.065C64.1901 69.09 66.6401 65.1 66.6401 60.76C66.6051 56.455 64.1901 52.465 59.7801 49.525ZM48.7901 63.91C49.8051 64.925 49.8051 66.605 48.7901 67.62C48.2651 68.145 47.6001 68.39 46.9351 68.39C46.2701 68.39 45.6051 68.145 45.0801 67.62L42.0001 64.54L38.9201 67.62C38.3951 68.145 37.7301 68.39 37.0651 68.39C36.4001 68.39 35.7351 68.145 35.2101 67.62C34.1951 66.605 34.1951 64.925 35.2101 63.91L38.2901 60.83L35.2101 57.75C34.1951 56.735 34.1951 55.055 35.2101 54.04C36.2251 53.025 37.9051 53.025 38.9201 54.04L42.0001 57.12L45.0801 54.04C46.0951 53.025 47.7751 53.025 48.7901 54.04C49.8051 55.055 49.8051 56.735 48.7901 57.75L45.7101 60.83L48.7901 63.91Z" fill="#292D32"/>
</svg>
