<svg width="24" height="24" viewBox="0 0 24 24" fill="none" xmlns="http://www.w3.org/2000/svg">
<path d="M5.73998 16C5.84998 15.51 5.64998 14.81 5.29998 14.46L2.86998 12.03C2.10998 11.27 1.80998 10.46 2.02998 9.76C2.25998 9.06 2.96998 8.58 4.02998 8.4L7.14998 7.88C7.59998 7.8 8.14998 7.4 8.35998 6.99L10.08 3.54C10.58 2.55 11.26 2 12 2C12.74 2 13.42 2.55 13.92 3.54L15.64 6.99C15.77 7.25 16.04 7.5 16.33 7.67L5.55998 18.44C5.41998 18.58 5.17998 18.45 5.21998 18.25L5.73998 16Z" fill="white"/>
<path d="M18.7 14.46C18.34 14.82 18.14 15.51 18.26 16L18.95 19.01C19.24 20.26 19.06 21.2 18.44 21.65C18.19 21.83 17.89 21.92 17.54 21.92C17.03 21.92 16.43 21.73 15.77 21.34L12.84 19.6C12.38 19.33 11.62 19.33 11.16 19.6L8.22999 21.34C7.11999 21.99 6.16999 22.1 5.55999 21.65C5.32999 21.48 5.15999 21.25 5.04999 20.95L17.21 8.79C17.67 8.33 18.32 8.12 18.95 8.23L19.96 8.4C21.02 8.58 21.73 9.06 21.96 9.76C22.18 10.46 21.88 11.27 21.12 12.03L18.7 14.46Z" fill="white"/>
</svg>
