<svg width="84" height="84" viewBox="0 0 84 84" fill="none" xmlns="http://www.w3.org/2000/svg">
<path d="M56 6.89502H28C14 6.89502 7 13.895 7 27.895V45.395C7 62.895 14 66.395 28 66.395H29.75C30.73 66.395 31.99 67.025 32.55 67.795L37.8 74.795C40.11 77.875 43.89 77.875 46.2 74.795L51.45 67.795C52.115 66.92 53.165 66.395 54.25 66.395H56C70 66.395 77 59.395 77 45.395V27.895C77 13.895 70 6.89502 56 6.89502ZM29.855 42.595C30.87 43.61 30.87 45.29 29.855 46.305C29.33 46.83 28.665 47.075 28 47.075C27.335 47.075 26.67 46.83 26.145 46.305L19.145 39.305C18.13 38.29 18.13 36.61 19.145 35.595L26.145 28.595C27.16 27.58 28.84 27.58 29.855 28.595C30.87 29.61 30.87 31.29 29.855 32.305L24.71 37.45L29.855 42.595ZM47.915 30.31L40.915 46.655C40.495 47.635 39.515 48.23 38.5 48.23C38.15 48.23 37.8 48.16 37.45 48.02C36.12 47.46 35.49 45.92 36.085 44.555L43.085 28.21C43.645 26.88 45.185 26.25 46.55 26.845C47.88 27.44 48.475 28.98 47.915 30.31ZM64.855 39.305L57.855 46.305C57.33 46.83 56.665 47.075 56 47.075C55.335 47.075 54.67 46.83 54.145 46.305C53.13 45.29 53.13 43.61 54.145 42.595L59.29 37.45L54.145 32.305C53.13 31.29 53.13 29.61 54.145 28.595C55.16 27.58 56.84 27.58 57.855 28.595L64.855 35.595C65.87 36.61 65.87 38.29 64.855 39.305Z" fill="#292D32"/>
</svg>
