<svg width="84" height="84" viewBox="0 0 84 84" fill="none" xmlns="http://www.w3.org/2000/svg">
<path d="M42 40.355C32.34 40.355 24.5 48.195 24.5 57.855C24.5 60.445 25.06 62.895 26.11 65.065C26.39 65.695 26.705 66.29 27.055 66.85C30.065 71.925 35.63 75.355 42 75.355C48.37 75.355 53.935 71.925 56.945 66.85C57.295 66.29 57.61 65.695 57.89 65.065C58.94 62.895 59.5 60.445 59.5 57.855C59.5 48.195 51.66 40.355 42 40.355ZM47.25 63.49C46.725 64.015 46.06 64.26 45.395 64.26C44.73 64.26 44.065 64.015 43.54 63.49L41.685 61.635L39.76 63.56C39.235 64.085 38.57 64.33 37.905 64.33C37.24 64.33 36.575 64.085 36.05 63.56C35.035 62.545 35.035 60.865 36.05 59.85L37.975 57.925L36.12 56.07C35.105 55.055 35.105 53.375 36.12 52.36C37.135 51.345 38.815 51.345 39.83 52.36L41.685 54.215L43.435 52.465C44.45 51.45 46.13 51.45 47.145 52.465C48.16 53.48 48.16 55.16 47.145 56.175L45.395 57.925L47.25 59.78C48.265 60.83 48.265 62.475 47.25 63.49Z" fill="#292D32"/>
<path d="M70.7 60.515C69.44 61.635 68.075 62.58 66.605 63.35C65.345 63.98 64.085 62.755 64.295 61.355C64.435 60.34 64.505 59.29 64.505 58.205C64.505 45.675 54.285 35.455 41.755 35.455C29.225 35.455 19.005 45.675 19.005 58.205C19.005 59.815 19.18 61.355 19.495 62.86C19.74 64.085 18.795 65.31 17.57 64.995C3.745 61.635 3.675 40.355 19.145 39.235H19.32C8.085 8.015 55.475 -4.48 60.9 28.35C76.055 30.275 82.18 50.47 70.7 60.515Z" fill="#292D32"/>
</svg>
