<svg width="84" height="84" viewBox="0 0 84 84" fill="none" xmlns="http://www.w3.org/2000/svg">
<path d="M68.285 20.475L47.495 8.47C44.1 6.51 39.9 6.51 36.47 8.47L15.715 20.475C12.32 22.435 10.22 26.075 10.22 30.03V53.97C10.22 57.89 12.32 61.53 15.715 63.525L36.505 75.53C39.9 77.49 44.1 77.49 47.53 75.53L68.32 63.525C71.715 61.565 73.815 57.925 73.815 53.97V30.03C73.78 26.075 71.68 22.47 68.285 20.475ZM39.375 27.125C39.375 25.69 40.565 24.5 42 24.5C43.435 24.5 44.625 25.69 44.625 27.125V45.5C44.625 46.935 43.435 48.125 42 48.125C40.565 48.125 39.375 46.935 39.375 45.5V27.125ZM45.22 58.205C45.045 58.625 44.8 59.01 44.485 59.36C43.82 60.025 42.945 60.375 42 60.375C41.545 60.375 41.09 60.27 40.67 60.095C40.215 59.92 39.865 59.675 39.515 59.36C39.2 59.01 38.955 58.625 38.745 58.205C38.57 57.785 38.5 57.33 38.5 56.875C38.5 55.965 38.85 55.055 39.515 54.39C39.865 54.075 40.215 53.83 40.67 53.655C41.965 53.095 43.505 53.41 44.485 54.39C44.8 54.74 45.045 55.09 45.22 55.545C45.395 55.965 45.5 56.42 45.5 56.875C45.5 57.33 45.395 57.785 45.22 58.205Z" fill="#292D32"/>
</svg>
