<svg width="32" height="32" viewBox="0 0 32 32" fill="none" xmlns="http://www.w3.org/2000/svg">
<path d="M12 25.3333C12 26.4533 12.1733 27.5467 12.4933 28.56C7.37333 26.7867 3.50666 22.08 3.10666 16.5733C2.70666 10.72 6.07999 5.25333 11.5333 2.95999C12.9467 2.37333 13.6667 2.79999 13.9733 3.10666C14.2667 3.39999 14.68 4.10666 14.0933 5.45333C13.4933 6.83999 13.2 8.30666 13.2 9.82666C13.2133 12.5467 14.28 15.0667 16.0133 17C13.5733 18.9467 12 21.96 12 25.3333Z" fill="#232323"/>
<path opacity="0.4" d="M28.28 23.6267C25.64 27.2133 21.4533 29.32 16.9867 29.32C16.7733 29.32 16.56 29.3067 16.3467 29.2933C15.0133 29.24 13.72 28.9867 12.4933 28.56C12.1733 27.5467 12 26.4533 12 25.3333C12 21.96 13.5733 18.9467 16.0133 17C17.9733 19.2 20.7867 20.6267 23.8933 20.76C24.7333 20.8 25.5733 20.7333 26.4 20.5867C27.8933 20.32 28.4933 20.88 28.7067 21.24C28.9333 21.6 29.1733 22.3867 28.28 23.6267Z" fill="#232323"/>
</svg>
