<svg width="32" height="32" viewBox="0 0 32 32" fill="none" xmlns="http://www.w3.org/2000/svg">
<path d="M16 25.3333C21.1547 25.3333 25.3333 21.1546 25.3333 16C25.3333 10.8453 21.1547 6.66666 16 6.66666C10.8453 6.66666 6.66667 10.8453 6.66667 16C6.66667 21.1546 10.8453 25.3333 16 25.3333Z" fill="white"/>
<path d="M16 30.6133C15.2667 30.6133 14.6667 30.0667 14.6667 29.3333V29.2267C14.6667 28.4933 15.2667 27.8933 16 27.8933C16.7333 27.8933 17.3333 28.4933 17.3333 29.2267C17.3333 29.96 16.7333 30.6133 16 30.6133ZM25.52 26.8533C25.1733 26.8533 24.84 26.72 24.5733 26.4667L24.4 26.2933C23.88 25.7733 23.88 24.9333 24.4 24.4133C24.92 23.8933 25.76 23.8933 26.28 24.4133L26.4533 24.5867C26.9733 25.1067 26.9733 25.9467 26.4533 26.4667C26.2 26.72 25.8667 26.8533 25.52 26.8533ZM6.48 26.8533C6.13333 26.8533 5.79999 26.72 5.53333 26.4667C5.01333 25.9467 5.01333 25.1067 5.53333 24.5867L5.70666 24.4133C6.22666 23.8933 7.06666 23.8933 7.58666 24.4133C8.10666 24.9333 8.10666 25.7733 7.58666 26.2933L7.41333 26.4667C7.16 26.72 6.81333 26.8533 6.48 26.8533ZM29.3333 17.3333H29.2267C28.4933 17.3333 27.8933 16.7333 27.8933 16C27.8933 15.2667 28.4933 14.6667 29.2267 14.6667C29.96 14.6667 30.6133 15.2667 30.6133 16C30.6133 16.7333 30.0667 17.3333 29.3333 17.3333ZM2.77333 17.3333H2.66666C1.93333 17.3333 1.33333 16.7333 1.33333 16C1.33333 15.2667 1.93333 14.6667 2.66666 14.6667C3.4 14.6667 4.05333 15.2667 4.05333 16C4.05333 16.7333 3.50666 17.3333 2.77333 17.3333ZM25.3467 7.98668C25 7.98668 24.6667 7.85334 24.4 7.60001C23.88 7.08001 23.88 6.24001 24.4 5.72001L24.5733 5.54668C25.0933 5.02668 25.9333 5.02668 26.4533 5.54668C26.9733 6.06668 26.9733 6.90668 26.4533 7.42668L26.28 7.60001C26.0267 7.85334 25.6933 7.98668 25.3467 7.98668ZM6.65333 7.98668C6.30666 7.98668 5.97333 7.85334 5.70666 7.60001L5.53333 7.41334C5.01333 6.89334 5.01333 6.05334 5.53333 5.53334C6.05333 5.01334 6.89333 5.01334 7.41333 5.53334L7.58666 5.70668C8.10666 6.22668 8.10666 7.06668 7.58666 7.58668C7.33333 7.85334 6.98666 7.98668 6.65333 7.98668ZM16 4.05334C15.2667 4.05334 14.6667 3.50668 14.6667 2.77334V2.66668C14.6667 1.93334 15.2667 1.33334 16 1.33334C16.7333 1.33334 17.3333 1.93334 17.3333 2.66668C17.3333 3.40001 16.7333 4.05334 16 4.05334Z" fill="white"/>
</svg>
